<?xml version="1.0" standalone="no"?>
<!DOCTYPE svg PUBLIC "-//W3C//DTD SVG 20010904//EN"
 "http://www.w3.org/TR/2001/REC-SVG-20010904/DTD/svg10.dtd">
<svg version="1.0" xmlns="http://www.w3.org/2000/svg"
 width="1654.000000pt" height="1654.000000pt" viewBox="0 0 1654.000000 1654.000000"
 preserveAspectRatio="xMidYMid meet">
<metadata>
Created by potrace 1.11, written by Peter Selinger 2001-2013
</metadata>
<g transform="translate(0.000000,1654.000000) scale(0.100000,-0.100000)"
fill="#000000" stroke="none">
<path d="M13745 15690 c-115 -82 -275 -195 -355 -251 -146 -103 -180 -127
-279 -199 -29 -22 -59 -41 -65 -43 -8 -3 -11 -448 -11 -1675 l0 -1670 -157
-154 c-86 -84 -399 -392 -695 -684 -296 -292 -610 -602 -698 -689 -88 -86
-394 -388 -680 -670 -286 -282 -599 -590 -695 -685 -352 -345 -640 -634 -640
-641 0 -4 -25 -60 -55 -124 -30 -63 -55 -117 -55 -119 0 -2 -22 -50 -48 -107
-27 -57 -75 -162 -108 -234 -32 -71 -69 -138 -82 -148 -12 -10 -28 -24 -35
-30 -6 -7 -46 -39 -87 -72 -41 -33 -84 -67 -95 -76 -51 -43 -269 -220 -454
-369 -537 -435 -745 -604 -751 -610 -3 -3 -84 -68 -180 -145 -96 -77 -177
-142 -180 -145 -3 -3 -41 -35 -85 -70 -44 -35 -82 -67 -85 -70 -3 -3 -72 -59
-155 -125 -82 -66 -152 -122 -155 -125 -3 -4 -39 -33 -80 -66 -41 -32 -84 -67
-95 -76 -11 -9 -76 -62 -145 -118 -69 -56 -134 -109 -145 -118 -11 -9 -68 -55
-125 -102 -58 -46 -107 -87 -110 -90 -3 -3 -25 -21 -50 -40 -25 -19 -47 -37
-50 -40 -3 -3 -39 -32 -80 -65 -41 -33 -84 -68 -95 -77 -11 -9 -99 -81 -195
-158 -96 -78 -193 -157 -215 -175 -40 -33 -159 -129 -405 -328 -74 -60 -146
-118 -160 -130 -14 -12 -70 -58 -125 -102 -248 -200 -740 -600 -745 -605 -3
-3 -61 -50 -129 -105 -68 -55 -134 -109 -147 -120 -21 -19 -23 -30 -29 -190
-7 -224 -22 -335 -45 -335 -5 0 -125 70 -266 155 -142 85 -261 155 -266 155
-4 0 -8 5 -8 10 0 6 -5 10 -10 10 -6 0 -64 33 -128 73 -159 100 -640 395 -712
437 -19 11 -89 54 -155 95 -129 80 -340 210 -383 236 -30 18 -325 200 -477
294 -135 84 -355 219 -435 267 -36 22 -100 61 -143 89 -43 27 -83 49 -88 49
-5 0 -9 4 -9 9 0 26 -72 22 -300 -19 -30 -5 -71 -12 -90 -15 -19 -3 -42 -8
-50 -10 -8 -2 -31 -6 -50 -9 -37 -6 -106 -29 -115 -38 -9 -8 161 -160 524
-468 68 -58 129 -110 135 -115 6 -6 74 -62 151 -125 168 -138 440 -363 475
-394 14 -12 34 -28 46 -36 11 -8 43 -34 70 -57 27 -23 94 -78 149 -123 55 -45
109 -89 120 -98 11 -10 76 -62 145 -117 128 -103 164 -132 184 -150 6 -6 83
-69 171 -140 548 -441 854 -699 882 -741 16 -25 16 -27 -8 -46 -23 -18 -155
-106 -264 -176 -27 -17 -48 -32 -45 -33 3 -1 23 -2 45 -4 22 -1 83 -5 135 -9
121 -8 219 -14 345 -21 55 -3 127 -8 160 -10 33 -2 110 -7 170 -10 61 -3 133
-8 161 -10 l52 -5 303 194 c167 107 466 297 663 423 198 125 403 256 455 290
53 35 110 70 128 79 18 9 37 22 44 30 6 8 16 14 21 14 9 0 17 5 110 68 25 18
49 32 51 32 5 0 43 24 347 215 109 69 427 266 645 400 55 34 147 90 204 126
l104 64 1033 1 1033 1 38 33 c21 18 63 56 94 84 30 28 97 89 149 136 51 47
101 92 110 101 44 42 219 178 248 193 28 15 63 12 59 -4 0 -3 5 -39 11 -80 7
-41 14 -91 17 -110 2 -19 6 -44 9 -55 2 -11 7 -47 11 -80 3 -32 8 -62 10 -65
2 -3 6 -30 9 -60 3 -30 10 -80 16 -110 5 -30 12 -75 15 -100 3 -25 8 -58 11
-75 9 -53 12 -78 24 -160 6 -44 13 -91 16 -105 2 -14 6 -45 9 -70 3 -25 8 -52
10 -60 2 -8 6 -34 9 -57 10 -77 16 -119 20 -138 2 -11 7 -42 10 -70 4 -27 11
-75 16 -105 5 -30 13 -77 16 -105 4 -27 8 -57 9 -65 7 -46 17 -118 21 -140 13
-89 26 -181 30 -220 2 -25 6 -60 9 -78 3 -18 8 -54 11 -80 3 -26 7 -58 9 -72
2 -14 6 -54 9 -90 3 -36 9 -96 12 -135 11 -117 13 -186 13 -559 l1 -358 208 7
c114 4 227 8 252 10 25 1 110 6 190 10 80 3 161 8 180 10 19 2 85 6 145 10 61
3 130 8 155 10 56 5 260 19 445 31 55 3 118 7 140 9 22 1 87 6 145 10 58 4
106 9 108 10 2 2 -139 146 -313 321 -199 201 -314 323 -310 332 3 8 32 48 65
90 260 332 369 483 374 519 5 40 13 106 21 183 3 25 8 63 11 85 12 98 18 144
29 255 2 25 7 65 10 90 3 25 7 72 10 105 3 33 7 67 10 75 2 8 6 47 10 85 3 39
7 86 10 105 12 88 15 120 20 185 4 39 8 81 10 95 2 14 6 59 9 100 l6 75 -70
90 c-274 351 -554 738 -547 758 4 14 138 87 612 332 83 43 151 79 153 80 2 2
6 18 8 37 3 18 12 61 20 96 7 34 16 76 19 93 3 17 19 99 36 183 39 189 35 172
49 231 6 28 14 61 16 75 3 14 11 53 19 86 8 34 16 73 19 85 2 13 23 111 46
218 23 107 44 204 46 215 2 12 15 71 28 131 14 61 27 121 30 135 3 14 7 34 10
45 18 80 28 125 41 193 3 15 8 35 11 44 5 17 10 42 19 90 3 16 12 57 20 93 17
70 95 444 95 452 0 5 78 -4 145 -19 95 -19 457 -127 900 -268 153 -49 341
-105 380 -115 11 -3 63 -17 115 -31 52 -14 106 -28 120 -30 14 -3 41 -9 61
-13 61 -14 67 -2 41 76 -33 101 -35 127 -12 148 17 15 31 17 92 12 40 -3 82
-8 93 -11 153 -35 245 -48 245 -35 0 10 -104 215 -163 319 -68 122 -274 497
-280 510 -4 8 -16 29 -26 45 -10 17 -49 87 -86 155 -37 69 -83 154 -102 188
-71 131 -193 381 -196 402 -2 13 0 46 5 74 4 28 10 74 13 101 3 28 8 62 10 78
17 100 45 274 50 315 3 17 7 48 10 67 3 19 11 72 19 117 8 46 17 103 21 128 3
25 10 68 15 95 5 28 11 66 14 85 3 19 12 74 21 123 8 48 17 104 20 123 2 20 6
44 9 53 3 9 7 38 11 65 3 27 8 52 10 55 2 3 6 31 9 61 4 30 13 91 21 135 8 44
17 96 20 115 3 19 7 46 10 60 3 14 7 39 9 55 3 17 13 75 22 130 9 55 18 114
20 130 2 17 6 39 9 51 2 12 7 39 10 60 6 37 41 250 50 304 4 23 39 232 51 304
3 16 6 32 8 35 2 3 7 29 10 56 6 41 30 190 60 360 3 17 14 84 25 150 23 133
29 168 36 205 3 14 7 43 11 65 3 22 7 47 9 55 3 8 7 33 10 55 4 22 17 103 30
180 14 77 27 154 29 170 3 17 8 46 11 65 12 67 114 635 119 655 2 11 10 49 16
85 7 36 17 71 23 78 19 24 428 284 1062 675 77 47 145 90 150 94 6 5 61 39
122 76 112 68 274 172 344 221 22 15 39 37 42 53 5 27 0 314 -7 378 -2 17 -6
68 -10 115 -4 47 -9 101 -11 120 -3 19 -7 62 -10 95 -16 191 -15 184 -43 183
-9 0 -73 2 -142 6 -69 4 -170 9 -225 11 -55 3 -140 7 -190 10 -123 7 -260 14
-390 20 -61 3 -141 7 -180 10 -38 2 -128 7 -200 10 -71 3 -170 7 -220 10 -49
2 -142 7 -205 10 -63 3 -162 8 -220 10 -58 3 -150 8 -205 10 -55 2 -149 7
-210 10 l-110 5 -210 -150z"/>
</g>
</svg>
